<svg viewBox="0 0 1360 1590" xmlns="http://www.w3.org/2000/svg" font-family="Verdana, Arial, sans-serif" font-size="14">
<rect x="0" y="0" width="1360" height="1590" fill="#FFFFFF"/>
<defs><marker id="arrow" markerWidth="10" markerHeight="10" refX="7.5" refY="3" orient="auto"><path d="M0,0 L8,3 L0,6 Z" fill="#333333"/></marker><marker id="arrow-open" markerWidth="11" markerHeight="11" refX="7.5" refY="3" orient="auto"><path d="M0,0 L8,3 L0,6" fill="none" stroke="#333333"/></marker></defs>
<text x="680" y="22" text-anchor="middle" font-weight="bold" font-size="17">NHMS &#8212; M1 (Intake &amp; EHR): Admission &amp; Assessment Workflow</text>
<rect x="20" y="56" width="440" height="36" fill="#FFF7B2" stroke="#000000" stroke-width="1"/>
<text x="240" y="79" text-anchor="middle" font-weight="bold" font-size="15">Admission Staff</text>
<rect x="460" y="56" width="440" height="36" fill="#FFF7B2" stroke="#000000" stroke-width="1"/>
<text x="680" y="79" text-anchor="middle" font-weight="bold" font-size="15">Nurse (RN)</text>
<rect x="900" y="56" width="440" height="36" fill="#FFF7B2" stroke="#000000" stroke-width="1"/>
<text x="1120" y="79" text-anchor="middle" font-weight="bold" font-size="15">DON</text>
<line x1="460" y1="56" x2="460" y2="1560" stroke="#CCCCCC" stroke-width="1"/>
<line x1="900" y1="56" x2="900" y2="1560" stroke="#CCCCCC" stroke-width="1"/>
<rect x="20" y="56" width="1320" height="1504" fill="none" stroke="#000000" stroke-width="1.5"/>
<polyline points="240.0,146.0 240.0,171.0" fill="none" stroke="#333333" stroke-width="1.5" marker-end="url(#arrow)"/>
<polyline points="355.0,208.0 562.0,208.0" fill="none" stroke="#333333" stroke-width="1.5" marker-end="url(#arrow)"/>
<text x="460" y="199" text-anchor="middle" font-size="11.5" fill="#333333">row click</text>
<polyline points="240.0,242.0 240.0,286.0" fill="none" stroke="#333333" stroke-width="1.5" marker-end="url(#arrow)"/>
<text x="252" y="270" text-anchor="start" font-size="11.5" fill="#333333">Add New Resident</text>
<polyline points="680.0,242.0 680.0,270.0 380.0,270.0 380.0,305.0 363.0,305.0" fill="none" stroke="#333333" stroke-width="1.5" stroke-dasharray="6 5" marker-end="url(#arrow-open)"/>
<text x="520" y="262" text-anchor="middle" font-size="11.5" fill="#333333">Edit Profile</text>
<polyline points="240.0,355.0 240.0,401.0" fill="none" stroke="#333333" stroke-width="1.5" marker-end="url(#arrow)"/>
<text x="252" y="385" text-anchor="start" font-size="11.5" fill="#333333">Start New Admission</text>
<polyline points="240.0,472.0 240.0,496.0" fill="none" stroke="#333333" stroke-width="1.5" marker-end="url(#arrow)"/>
<polyline points="140.0,558.0 120.0,558.0 120.0,655.0" fill="none" stroke="#333333" stroke-width="1.5" marker-end="url(#arrow)"/>
<polyline points="340.0,558.0 360.0,558.0 360.0,653.0" fill="none" stroke="#333333" stroke-width="1.5" marker-end="url(#arrow)"/>
<polyline points="120.0,722.0 120.0,773.0" fill="none" stroke="#333333" stroke-width="1.5" marker-end="url(#arrow)"/>
<polyline points="360.0,724.0 360.0,752.0 710.0,752.0 710.0,775.0" fill="none" stroke="#333333" stroke-width="1.5" marker-end="url(#arrow)"/>
<text x="500" y="744" text-anchor="middle" font-size="11.5" fill="#333333">Confirm Admission</text>
<polyline points="650.0,242.0 650.0,775.0" fill="none" stroke="#333333" stroke-width="1.5" stroke-dasharray="6 5" marker-end="url(#arrow-open)"/>
<polyline points="680.0,846.0 680.0,872.0 765.0,872.0 765.0,897.0" fill="none" stroke="#333333" stroke-width="1.5" marker-end="url(#arrow)"/>
<text x="740" y="864" text-anchor="start" font-size="11.5" fill="#333333">Save → LOC calc</text>
<polyline points="765.0,963.0 765.0,996.0" fill="none" stroke="#333333" stroke-width="1.5" marker-end="url(#arrow)"/>
<polyline points="890.0,1058.0 890.0,1130.0 765.0,1130.0 765.0,1157.0" fill="none" stroke="#333333" stroke-width="1.5" marker-end="url(#arrow)"/>
<polyline points="640.0,1058.0 640.0,1240.0 1120.0,1240.0 1120.0,1256.0" fill="none" stroke="#333333" stroke-width="1.5" marker-end="url(#arrow)"/>
<polyline points="1120.0,1325.0 1120.0,1362.0" fill="none" stroke="#333333" stroke-width="1.5" marker-end="url(#arrow)"/>
<polyline points="765.0,1223.0 765.0,1450.0 850.0,1450.0 850.0,1465.0" fill="none" stroke="#333333" stroke-width="1.5" marker-end="url(#arrow)"/>
<polyline points="1120.0,1431.0 1120.0,1450.0 990.0,1450.0 990.0,1465.0" fill="none" stroke="#333333" stroke-width="1.5" marker-end="url(#arrow)"/>
<text x="642" y="510" text-anchor="middle" font-size="11.5" fill="#333333" transform="rotate(-90 642 510)">New Assessment</text>
<text x="113" y="553" text-anchor="end" font-size="12" font-weight="bold">NO</text>
<text x="367" y="553" text-anchor="start" font-size="12" font-weight="bold">YES</text>
<text x="618" y="1053" text-anchor="end" font-size="12" font-weight="bold">NO</text>
<text x="962" y="1053" text-anchor="start" font-size="12" font-weight="bold">YES</text>
<rect x="140.0" y="106.0" width="200" height="40" rx="20.0" fill="#CCE5FF" stroke="#000000" stroke-width="2"/>
<text x="240" y="131.0" text-anchor="middle" fill="#000000" font-size="13">
<tspan x="240" dy="0">Start: Login → Home</tspan>
</text>
<rect x="125.0" y="174.0" width="230" height="68" rx="8" fill="#FFFFCC" stroke="#000000" stroke-width="1.5"/>
<text x="240" y="198.0" text-anchor="middle" fill="#000000" font-size="13">
<tspan x="240" dy="0">View Resident List</tspan>
<tspan x="240" dy="15">(M1-US-01)</tspan>
<tspan x="240" dy="16" font-size="10.5" font-style="italic" fill="#555555">[Admission Staff · Nurse · DON]</tspan>
</text>
<rect x="565.0" y="174.0" width="230" height="68" rx="8" fill="#FFFFCC" stroke="#000000" stroke-width="1.5"/>
<text x="680" y="198.0" text-anchor="middle" fill="#000000" font-size="13">
<tspan x="680" dy="0">Resident Profile — Detail</tspan>
<tspan x="680" dy="15">(M1-US-02)</tspan>
<tspan x="680" dy="16" font-size="10.5" font-style="italic" fill="#555555">[All clinical actors]</tspan>
</text>
<rect x="120.0" y="289.0" width="240" height="66" rx="8" fill="#FFFFCC" stroke="#000000" stroke-width="1.5"/>
<text x="240" y="312.0" text-anchor="middle" fill="#000000" font-size="13">
<tspan x="240" dy="0">Create / Edit Resident</tspan>
<tspan x="240" dy="15">(M1-US-03)</tspan>
<tspan x="240" dy="16" font-size="10.5" font-style="italic" fill="#555555">[Admission Staff]</tspan>
</text>
<rect x="120.0" y="404.0" width="240" height="68" rx="8" fill="#FFFFCC" stroke="#000000" stroke-width="1.5"/>
<text x="240" y="428.0" text-anchor="middle" fill="#000000" font-size="13">
<tspan x="240" dy="0">Pre-Admission Screening</tspan>
<tspan x="240" dy="15">(M1-US-04) · Step 1 of 3</tspan>
<tspan x="240" dy="16" font-size="10.5" font-style="italic" fill="#555555">[Admission Staff]</tspan>
</text>
<polygon points="240,499.0 340.0,558 240,617.0 140.0,558" fill="#FFFFFF" stroke="#000000" stroke-width="1.5"/>
<text x="240" y="549.5" text-anchor="middle" font-size="12">
<tspan x="240" dy="0">BR-06: Facility can</tspan>
<tspan x="240" dy="15">meet clinical needs?</tspan>
</text>
<rect x="30.0" y="658.0" width="180" height="64" rx="8" fill="#FFFFCC" stroke="#000000" stroke-width="1.5"/>
<text x="120" y="680.0" text-anchor="middle" fill="#000000" font-size="13">
<tspan x="120" dy="0">Enter Flag Reason,</tspan>
<tspan x="120" dy="15">Submit for Review</tspan>
<tspan x="120" dy="16" font-size="10.5" font-style="italic" fill="#555555">[Admission Staff]</tspan>
</text>
<rect x="20.0" y="776.0" width="200" height="48" rx="24.0" fill="#CCE5FF" stroke="#000000" stroke-width="2"/>
<text x="120" y="805.0" text-anchor="middle" fill="#000000" font-size="13">
<tspan x="120" dy="0">End: Pending Review</tspan>
</text>
<rect x="260.0" y="656.0" width="200" height="68" rx="8" fill="#FFFFCC" stroke="#000000" stroke-width="1.5"/>
<text x="360" y="680.0" text-anchor="middle" fill="#000000" font-size="13">
<tspan x="360" dy="0">Complete Admission Form</tspan>
<tspan x="360" dy="15">(M1-US-05) · Step 2 of 3</tspan>
<tspan x="360" dy="16" font-size="10.5" font-style="italic" fill="#555555">[Admission Staff]</tspan>
</text>
<rect x="565.0" y="778.0" width="230" height="68" rx="8" fill="#FFFFCC" stroke="#000000" stroke-width="1.5"/>
<text x="680" y="802.0" text-anchor="middle" fill="#000000" font-size="13">
<tspan x="680" dy="0">Initial Assessment Form</tspan>
<tspan x="680" dy="15">(M1-US-06) · Step 3 of 3</tspan>
<tspan x="680" dy="16" font-size="10.5" font-style="italic" fill="#555555">[Nurse (RN)]</tspan>
</text>
<rect x="640.0" y="897.0" width="250" height="66" rx="8" fill="#FFFFCC" stroke="#000000" stroke-width="1.5"/>
<text x="765" y="920.0" text-anchor="middle" fill="#000000" font-size="13">
<tspan x="765" dy="0">LOC Classification Result</tspan>
<tspan x="765" dy="15">(M1-US-08)</tspan>
<tspan x="765" dy="16" font-size="10.5" font-style="italic" fill="#555555">[Nurse / DON]</tspan>
</text>
<polygon points="765,999.0 890.0,1058 765,1117.0 640.0,1058" fill="#FFFFFF" stroke="#000000" stroke-width="1.5"/>
<text x="765" y="1049.5" text-anchor="middle" font-size="12">
<tspan x="765" dy="0">Accept suggested</tspan>
<tspan x="765" dy="15">LOC?</tspan>
</text>
<rect x="675.0" y="1157.0" width="180" height="66" rx="8" fill="#FFFFCC" stroke="#000000" stroke-width="1.5"/>
<text x="765" y="1180.0" text-anchor="middle" fill="#000000" font-size="13">
<tspan x="765" dy="0">Confirm LOC</tspan>
<tspan x="765" dy="15">(Audit Logged)</tspan>
<tspan x="765" dy="16" font-size="10.5" font-style="italic" fill="#555555">[Nurse / DON]</tspan>
</text>
<rect x="1015.0" y="1259.0" width="210" height="66" rx="8" fill="#FFFFCC" stroke="#000000" stroke-width="1.5"/>
<text x="1120" y="1282.0" text-anchor="middle" fill="#000000" font-size="13">
<tspan x="1120" dy="0">Enter Override Reason</tspan>
<tspan x="1120" dy="15">(Required)</tspan>
<tspan x="1120" dy="16" font-size="10.5" font-style="italic" fill="#555555">[DON]</tspan>
</text>
<rect x="1015.0" y="1365.0" width="210" height="66" rx="8" fill="#FFFFCC" stroke="#000000" stroke-width="1.5"/>
<text x="1120" y="1388.0" text-anchor="middle" fill="#000000" font-size="13">
<tspan x="1120" dy="0">Confirm Override</tspan>
<tspan x="1120" dy="15">(Audit Logged)</tspan>
<tspan x="1120" dy="16" font-size="10.5" font-style="italic" fill="#555555">[DON]</tspan>
</text>
<rect x="710.0" y="1468.0" width="380" height="60" rx="30.0" fill="#CCE5FF" stroke="#000000" stroke-width="2"/>
<text x="900" y="1495.5" text-anchor="middle" fill="#000000" font-size="13">
<tspan x="900" dy="0">End: Resident Profile Ready</tspan>
<tspan x="900" dy="15">for Care Plan (M2)</tspan>
</text>
</svg>